<?xml version="1.0" encoding="utf-8"?>
<!-- Generator: Adobe Illustrator 26.0.0, SVG Export Plug-In . SVG Version: 6.00 Build 0)  -->
<svg version="1.1" id="Capa_1" xmlns="http://www.w3.org/2000/svg" xmlns:xlink="http://www.w3.org/1999/xlink" x="0px" y="0px"
	 viewBox="0 0 362.1 362.1" style="enable-background:new 0 0 362.1 362.1;" xml:space="preserve">
<style type="text/css">
	.st0{fill:#FFFFFF;}
</style>
<g>
	<path class="st0" d="M181.1,0c-75.5,0-137,61.5-137,137c0,31.2,21.5,76.7,63.8,135.4c30.6,42.4,60.7,76,62,77.4l11.1,12.4
		l11.1-12.4c1.3-1.4,31.4-34.9,62-77.4C296.6,213.7,318,168.1,318,137C318,61.5,256.6,0,181.1,0z M181.1,317
		c-37.7-44.1-107-134.5-107-180c0-59,48-107,107-107s107,48,107,107C288,182.5,218.8,272.8,181.1,317L181.1,317z"/>
	<circle class="st0" cx="181.1" cy="137" r="49.7"/>
</g>
</svg>
