<?xml version="1.0" encoding="utf-8"?>
<!-- Generator: Adobe Illustrator 26.0.0, SVG Export Plug-In . SVG Version: 6.00 Build 0)  -->
<svg version="1.1" id="Capa_1" xmlns="http://www.w3.org/2000/svg" xmlns:xlink="http://www.w3.org/1999/xlink" x="0px" y="0px"
	 viewBox="0 0 273.9 362.1" style="enable-background:new 0 0 273.9 362.1;" xml:space="preserve">
<style type="text/css">
	.st0{fill:#FF960B;}
</style>
<g>
	<path class="st0" d="M137,0C61.5,0,0,61.5,0,137c0,31.2,21.5,76.7,63.8,135.4c30.6,42.4,60.7,76,62,77.4l11.1,12.4l11.1-12.4
		c1.3-1.4,31.4-34.9,62-77.4c42.5-58.7,63.9-104.3,63.9-135.4C273.9,61.5,212.5,0,137,0z M137,317C99.3,272.9,30,182.5,30,137
		C30,78,78,30,137,30s107,48,107,107C243.9,182.5,174.7,272.8,137,317L137,317z"/>
	<circle class="st0" cx="137" cy="137" r="49.7"/>
</g>
</svg>
