<?xml version="1.0" encoding="utf-8"?>
<!-- Generator: Adobe Illustrator 26.0.0, SVG Export Plug-In . SVG Version: 6.00 Build 0)  -->
<svg version="1.1" id="Capa_1" xmlns="http://www.w3.org/2000/svg" xmlns:xlink="http://www.w3.org/1999/xlink" x="0px" y="0px"
	 viewBox="0 0 239.2 445.8" style="enable-background:new 0 0 239.2 445.8;" xml:space="preserve">
<style type="text/css">
	.st0{fill:#FF960B;}
</style>
<g>
	<g>
		<path class="st0" d="M199.9,445.8c21.7,0,39.3-17.6,39.3-39.3V39.3c0-21.7-17.6-39.3-39.3-39.3H39.3C17.6,0,0,17.6,0,39.3v367.3
			c0,21.7,17.6,39.3,39.3,39.3L199.9,445.8L199.9,445.8z M142.7,11.9l-0.2,0.6c-0.3,0.8-1.4,1.5-2.2,1.5H99.5
			c-0.9,0-2.1-0.8-2.4-1.6l-0.2-0.5H142.7L142.7,11.9z M11.9,406.6V39.3c0-15.1,12.3-27.4,27.4-27.4h51.1l1.2,2.8
			c1.3,3,4.6,5.2,7.9,5.2h40.8c3.3,0,6.6-2.3,7.8-5.4l1-2.7H200c15.1,0,27.4,12.3,27.4,27.4v367.3c0,15.1-12.3,27.4-27.4,27.4H39.3
			C24.2,434,11.9,421.7,11.9,406.6z"/>
		<path class="st0" d="M161.9,23.9h6c1.9,0,3.5-1.6,3.5-3.5s-1.6-3.5-3.5-3.5h-6c-1.9,0-3.5,1.6-3.5,3.5S160,23.9,161.9,23.9z"/>
		<path class="st0" d="M187.2,14.6c3.2,0,5.9,2.6,5.9,5.9c0,3.2-2.6,5.9-5.9,5.9c-3.2,0-5.9-2.6-5.9-5.9S183.9,14.6,187.2,14.6z"/>
		<path class="st0" d="M218.3,400.2V48.7c0-1.6-1.3-3-3-3H23.9c-1.6,0-3,1.3-3,3v351.6c0,1.6,1.3,3,3,3h191.4
			C217,403.2,218.3,401.9,218.3,400.2z M212.4,397.3H26.9V51.7h185.5V397.3L212.4,397.3z"/>
	</g>
</g>
</svg>
