<?xml version="1.0" encoding="utf-8"?>
<!-- Generator: Adobe Illustrator 26.0.0, SVG Export Plug-In . SVG Version: 6.00 Build 0)  -->
<svg version="1.1" id="Capa_1" xmlns="http://www.w3.org/2000/svg" xmlns:xlink="http://www.w3.org/1999/xlink" x="0px" y="0px"
	 viewBox="0 0 36.1 36.1" style="enable-background:new 0 0 36.1 36.1;" xml:space="preserve">
<style type="text/css">
	.st0{fill:#FF960B;}
</style>
<g>
	<path class="st0" d="M36,13.9c-0.1-0.4-0.5-0.6-0.9-0.7l-11.5-1.2L19,1.4c-0.2-0.4-0.5-0.6-0.9-0.6s-0.8,0.2-0.9,0.6l-4.7,10.6
		L0.9,13.2c-0.4,0-0.7,0.3-0.9,0.7c-0.1,0.4,0,0.8,0.3,1.1L9,22.7L6.5,34c-0.1,0.4,0.1,0.8,0.4,1c0.3,0.2,0.7,0.3,1.1,0.1l10-5.8
		l10,5.8c0.2,0.1,0.3,0.1,0.5,0.1c0.2,0,0.4-0.1,0.6-0.2c0.3-0.2,0.5-0.6,0.4-1l-2.5-11.3l8.7-7.7C36.1,14.7,36.2,14.3,36,13.9z
		 M25.3,21.6c-0.3,0.2-0.4,0.6-0.3,1l2.1,9.7l-8.6-5c0,0,0,0,0,0V5.4l3.5,7.9c0.1,0.3,0.5,0.6,0.8,0.6l9.9,1L25.3,21.6z"/>
</g>
</svg>
