<?xml version="1.0" encoding="utf-8"?>
<!-- Generator: Adobe Illustrator 26.0.0, SVG Export Plug-In . SVG Version: 6.00 Build 0)  -->
<svg version="1.1" id="Layer_1" xmlns="http://www.w3.org/2000/svg" xmlns:xlink="http://www.w3.org/1999/xlink" x="0px" y="0px"
	 viewBox="0 0 512 512" style="enable-background:new 0 0 512 512;" xml:space="preserve">
<style type="text/css">
	.st0{fill:#FF960B;}
</style>
<g>
	<g>
		<g>
			<path class="st0" d="M365.5,95.4c-30-29.5-69.7-45.5-111.8-44.9C167.8,51.7,98.8,122.7,100,208.7c0.5,39.9,16.1,77.8,44,106.5
				c21.6,22.3,33.6,51.2,33.6,81.4v21.1c0,29.6,19,54.8,45.4,64.2v4.2c0,14.4,11.7,26.1,26.1,26.1h14c14.4,0,26.1-11.7,26.1-26.1
				v-4.2c26.4-9.4,45.4-34.6,45.4-64.2v-21.1c0-30.2,11.9-59.1,33.5-81.3C396.4,286,412,247.4,412,206.6
				C412,164.5,395.5,125,365.5,95.4z M270.7,485.9L270.7,485.9c0,4.2-3.4,7.7-7.7,7.7h-14c-4.2,0-7.7-3.4-7.7-7.7v-0.4
				c1.4,0.1,2.8,0.1,4.3,0.1h20.8c1.4,0,2.9-0.1,4.3-0.1L270.7,485.9L270.7,485.9z M266.4,467.2h-20.8c-20.2,0-37.6-12.1-45.3-29.4
				h111.5C304,455.1,286.6,467.2,266.4,467.2z M316.1,417.6c0,0.6,0,1.2,0,1.8H196c0-0.6,0-1.2,0-1.8v-11.9h120.2L316.1,417.6
				L316.1,417.6z M256,198.8c5.6,0,11-1.1,16.1-3.1l5.8,8.6c-14.3,4-29.5,4-43.9,0l5.8-8.6C245,197.8,250.4,198.8,256,198.8z
				 M250.5,179.8l5.5-8.2l5.5,8.2c-1.8,0.4-3.6,0.6-5.5,0.6C254.1,180.4,252.3,180.2,250.5,179.8z M283,222v165.3h-17.8v-162
				C271.2,224.8,277.1,223.7,283,222z M246.8,225.3v162H229V222C234.9,223.7,240.8,224.8,246.8,225.3z M354.7,302.4
				c-22.7,23.4-36.2,53.3-38.3,84.9h-15V209.1c0-1.8-0.5-3.6-1.6-5.1l-36.2-54c-1.7-2.5-4.6-4.1-7.6-4.1c-3.1,0-5.9,1.5-7.6,4.1
				l-36.2,54c-1,1.5-1.6,3.3-1.6,5.1v178.2h-15c-2.2-31.6-15.6-61.5-38.4-85c-24.5-25.3-38.3-58.7-38.8-93.9
				c-0.5-36.6,13.4-71.2,39.1-97.7c25.7-26.4,60-41.3,96.5-41.8c0.7,0,1.3,0,2,0c36.4,0,70.7,14,96.6,39.6c26.4,26.1,41,60.9,41,98
				C393.6,242.6,379.8,276.6,354.7,302.4z"/>
		</g>
	</g>
	<g>
		<g>
			<path class="st0" d="M290.4,86c-4.9-1.4-10,1.4-11.4,6.3c-1.4,4.9,1.4,10,6.3,11.4C331.1,116.7,363,159,363,206.6
				c0,5.1,4.1,9.2,9.2,9.2s9.2-4.1,9.2-9.2C381.4,150.9,344,101.3,290.4,86z"/>
		</g>
	</g>
	<g>
		<g>
			<path class="st0" d="M262.9,81.4c-2.9-0.2-5.8-0.2-8.7-0.2c-5.1,0.1-9.1,4.2-9.1,9.3c0.1,5,4.2,9.1,9.2,9.1c0,0,0.1,0,0.1,0
				c2.5,0,5,0,7.4,0.1c0.2,0,0.3,0,0.5,0c4.9,0,8.9-3.8,9.2-8.7C271.8,86,268,81.6,262.9,81.4z"/>
		</g>
	</g>
	<g>
		<g>
			<path class="st0" d="M455.3,199.3h-16.1c-5.1,0-9.2,4.1-9.2,9.2s4.1,9.2,9.2,9.2h16.1c5.1,0,9.2-4.1,9.2-9.2
				C464.5,203.5,460.4,199.3,455.3,199.3z"/>
		</g>
	</g>
	<g>
		<g>
			<path class="st0" d="M72.7,199.3h-16c-5.1,0-9.2,4.1-9.2,9.2s4.1,9.2,9.2,9.2h16c5.1,0,9.2-4.1,9.2-9.2
				C81.9,203.5,77.8,199.3,72.7,199.3z"/>
		</g>
	</g>
	<g>
		<g>
			<path class="st0" d="M436.6,104.3c-2.5-4.4-8.2-5.9-12.6-3.4l-13.9,8c-4.4,2.5-5.9,8.2-3.4,12.6c1.7,3,4.8,4.6,8,4.6
				c1.6,0,3.1-0.4,4.6-1.2l13.9-8C437.6,114.3,439.1,108.7,436.6,104.3z"/>
		</g>
	</g>
	<g>
		<g>
			<path class="st0" d="M105.2,295.6c-2.5-4.4-8.2-5.9-12.6-3.4l-13.9,8c-4.4,2.5-5.9,8.2-3.4,12.6c1.7,3,4.8,4.6,8,4.6
				c1.6,0,3.1-0.4,4.6-1.2l13.9-8C106.3,305.6,107.8,300,105.2,295.6z"/>
		</g>
	</g>
	<g>
		<g>
			<path class="st0" d="M360.3,27.9c-4.4-2.5-10-1-12.6,3.4l-8,13.9c-2.5,4.4-1,10,3.4,12.6c1.4,0.8,3,1.2,4.6,1.2
				c3.2,0,6.3-1.6,8-4.6l8-13.9C366.2,36.1,364.7,30.5,360.3,27.9z"/>
		</g>
	</g>
	<g>
		<g>
			<path class="st0" d="M256,0c-5.1,0-9.2,4.1-9.2,9.2v16.1c0,5.1,4.1,9.2,9.2,9.2c5.1,0,9.2-4.1,9.2-9.2V9.2
				C265.2,4.1,261.1,0,256,0z"/>
		</g>
	</g>
	<g>
		<g>
			<path class="st0" d="M172.3,45.2l-8-13.9c-2.5-4.4-8.2-5.9-12.6-3.4c-4.4,2.5-5.9,8.2-3.4,12.6l8,13.9c1.7,3,4.8,4.6,8,4.6
				c1.6,0,3.1-0.4,4.6-1.2C173.4,55.2,174.9,49.6,172.3,45.2z"/>
		</g>
	</g>
	<g>
		<g>
			<path class="st0" d="M101.9,108.9l-13.9-8c-4.4-2.5-10-1-12.6,3.4c-2.5,4.4-1,10,3.4,12.6l13.9,8c1.4,0.8,3,1.2,4.6,1.2
				c3.2,0,6.3-1.6,8-4.6C107.8,117.1,106.3,111.5,101.9,108.9z"/>
		</g>
	</g>
	<g>
		<g>
			<path class="st0" d="M433.2,300.2l-13.9-8c-4.4-2.5-10-1-12.6,3.4c-2.5,4.4-1,10,3.4,12.6l13.9,8c1.4,0.8,3,1.2,4.6,1.2
				c3.2,0,6.3-1.6,8-4.6C439.1,308.4,437.6,302.8,433.2,300.2z"/>
		</g>
	</g>
</g>
</svg>
