<?xml version="1.0" encoding="utf-8"?>
<!-- Generator: Adobe Illustrator 26.0.0, SVG Export Plug-In . SVG Version: 6.00 Build 0)  -->
<svg version="1.1" id="Layer_1" xmlns="http://www.w3.org/2000/svg" xmlns:xlink="http://www.w3.org/1999/xlink" x="0px" y="0px"
	 viewBox="0 0 512 512" style="enable-background:new 0 0 512 512;" xml:space="preserve">
<style type="text/css">
	.st0{fill:#FF960B;}
</style>
<g>
	<g>
		<g>
			<path class="st0" d="M90,355.7l79.7-79.7c2.5-2.5,3.2-6.2,1.9-9.4s-4.5-5.3-8-5.3H83.9c-4.8,0-8.6,3.9-8.6,8.6v79.7
				c0,3.5,2.1,6.6,5.3,8C83.9,358.9,87.6,358.2,90,355.7z M92.6,278.5h50.3l-50.3,50.3V278.5z"/>
		</g>
	</g>
	<g>
		<g>
			<path class="st0" d="M345.8,503.6c2.9-1.5,4.8-4.4,4.8-7.7V449H379c4.8,0,8.6-3.9,8.6-8.6V208.1h72.6c4.8,0,8.6-3.9,8.6-8.6
				v-53.4c0-4.8-3.9-8.6-8.6-8.6h-72.6V85.3h59.6c4.8,0,8.6-3.9,8.6-8.6V42.6c0-11.4-4.4-22.1-12.5-30.2
				c-8.1-8.1-18.8-12.5-30.2-12.5H126c-0.1,0-0.3,0-0.4,0c-11.4,0-22.1,4.4-30.2,12.5S82.9,31.2,82.9,42.6v186.5h-31
				c-4.8,0-8.6,3.9-8.6,8.6v189.6c0,3.5,2.1,6.6,5.3,8c3.2,1.3,6.9,0.6,9.4-1.9l24.9-24.9v31.9c0,4.8,3.9,8.6,8.6,8.6H270v46.9
				c0,3.3,1.9,6.3,4.8,7.7C297,514.7,323.6,514.7,345.8,503.6z M210.3,154.6v12.1c0,4.8,3.9,8.6,8.6,8.6s8.6-3.9,8.6-8.6v-12.1h23.8
				v12.1c0,4.8,3.9,8.6,8.6,8.6c4.8,0,8.6-3.9,8.6-8.6v-12.1h23.8v12.1c0,4.8,3.9,8.6,8.6,8.6s8.6-3.9,8.6-8.6v-12.1h23.8v12.1
				c0,4.8,3.9,8.6,8.6,8.6s8.6-3.9,8.6-8.6v-12.1h23.8v12.1c0,4.8,3.9,8.6,8.6,8.6s8.6-3.9,8.6-8.6v-12.1h23.9v12.1
				c0,4.8,3.9,8.6,8.6,8.6c4.7,0,8.6-3.9,8.6-8.6v-12.1h19v36.2H191.4v-36.2H210.3z M431.1,24.6c4.8,4.8,7.5,11.2,7.5,18v25.5H168.3
				V42.6c0-9.5-3.1-18.4-8.5-25.5h253.3C419.9,17.1,426.3,19.8,431.1,24.6z M60.4,246.3h160.1L60.3,406.5V246.3H60.4z M100,431.7
				L100,431.7v-40.5l147.4-147.4c2.5-2.5,3.2-6.2,1.9-9.4c-1.3-3.2-4.5-5.3-8-5.3H100V42.6c0-6.8,2.6-13.2,7.5-18
				c4.8-4.8,11.2-7.5,18-7.5l0,0h0.3c13.9,0.2,25.1,11.5,25.1,25.5v34.1c0,4.8,3.9,8.6,8.6,8.6h210.9v52.1H182.8
				c-4.8,0-8.6,3.9-8.6,8.6v53.4c0,4.8,3.9,8.6,8.6,8.6h187.6v223.7h-19.7v-100c0-1.7-0.5-3.4-1.5-4.8l-31.7-47.3
				c-1.6-2.4-4.3-3.8-7.2-3.8s-5.6,1.4-7.2,3.8l-31.7,47.3c-1,1.4-1.5,3.1-1.5,4.8v100H100z M324.2,320.7l4.4,6.5
				c-12,3.2-24.7,3.2-36.7,0l4.4-6.5c4.4,1.7,9.1,2.6,13.9,2.6C315.1,323.3,319.8,322.4,324.2,320.7z M310.3,306
				c-1.3,0-2.6-0.1-3.9-0.4l3.9-5.8l3.9,5.8C312.9,305.9,311.6,306,310.3,306z M287.2,453.8v-110c4.8,1.3,9.6,2.2,14.5,2.6v111.2
				C296.7,456.9,291.9,455.7,287.2,453.8z M318.9,346.4c4.9-0.5,9.7-1.4,14.5-2.6v110.1c-4.7,1.8-9.5,3.1-14.5,3.8V346.4z
				 M287.2,490.3V472c15,4.5,31.2,4.5,46.2,0v18.3C318.6,496.1,302,496.1,287.2,490.3z"/>
		</g>
	</g>
</g>
</svg>
