<?xml version="1.0" encoding="utf-8"?>
<!-- Generator: Adobe Illustrator 26.0.0, SVG Export Plug-In . SVG Version: 6.00 Build 0)  -->
<svg version="1.1" id="Capa_1" xmlns="http://www.w3.org/2000/svg" xmlns:xlink="http://www.w3.org/1999/xlink" x="0px" y="0px"
	 viewBox="0 0 423.7 423.7" style="enable-background:new 0 0 423.7 423.7;" xml:space="preserve">
<style type="text/css">
	.st0{fill:#FF960B;}
</style>
<g>
	<path class="st0" d="M368.4,241.6l-16.9-16.9c-1-1-2.4-1.6-3.9-1.6s-2.9,0.6-3.9,1.6l-2.2,2.2l-15.6-15.6v-30.5
		c0-2.4-1.6-4.5-3.9-5.2l-96.5-30.2c-2-0.6-4.1-0.1-5.5,1.4c-1.4,1.4-2,3.6-1.4,5.5l30.2,96.5c0.7,2.3,2.8,3.9,5.2,3.9h30.5
		l15.6,15.6l-2.2,2.2c-1,1-1.6,2.4-1.6,3.9c0,1.5,0.6,2.9,1.6,3.9L315,295c1.1,1.1,2.5,1.6,3.9,1.6s2.8-0.5,3.9-1.6l45.6-45.6
		C370.5,247.2,370.5,243.8,368.4,241.6z M286.9,241.5h-28.8l-22.3-71.3l31.8,31.8c-1.3,2.6-2,5.4-2,8.4c0,4.9,1.9,9.4,5.3,12.8
		c3.5,3.5,8.2,5.3,12.8,5.3c4.6,0,9.3-1.8,12.8-5.3c7.1-7.1,7.1-18.6,0-25.7c-5.7-5.7-14.4-6.8-21.2-3.3l-31.9-31.9l71.3,22.3v28.8
		c0,1.5,0.6,2.9,1.6,3.9l17.2,17.2L308,260.4l-17.2-17.2C289.8,242.1,288.4,241.5,286.9,241.5z M283.8,203.3c1.8,0,3.7,0.7,5.1,2.1
		c2.8,2.8,2.8,7.3,0,10.1c-2.8,2.8-7.3,2.8-10.1,0c-2.8-2.8-2.8-7.3,0-10.1C280.1,204,282,203.3,283.8,203.3z M318.8,283.4l-9.1-9.1
		l37.9-37.9l9.1,9.1L318.8,283.4z"/>
	<path class="st0" d="M268.3,377.8c-10.4,0-19.2,6.9-22,16.4c-41.1-4.4-79.8-22.7-109.3-51.9c-29.5-29.2-48.3-67.6-53.2-108.6
		c9.2-3,15.9-11.7,15.9-21.9S93,193,83.8,190c4.9-41,23.7-79.4,53.2-108.6c29.6-29.2,68.2-47.5,109.3-51.9
		c2.8,9.5,11.6,16.4,22,16.4c12.7,0,23-10.3,23-23S281,0,268.3,0c-10.8,0-19.8,7.5-22.3,17.5H136.5V13c0-3-2.5-5.5-5.5-5.5h-19.9
		c-3,0-5.5,2.5-5.5,5.5v19.9c0,3,2.5,5.5,5.5,5.5H131c3,0,5.5-2.5,5.5-5.5v-4.5h64.9c-26.9,9.5-51.6,24.8-72.2,45.1
		c-21.7,21.4-37.9,47.5-47.5,75.9v-41.7h4.5c3,0,5.5-2.5,5.5-5.5V82.3c0-3-2.5-5.5-5.5-5.5H66.3c-3,0-5.5,2.5-5.5,5.5v19.9
		c0,3,2.5,5.5,5.5,5.5h4.5v81.9c-9.8,2.6-17,11.6-17,22.2s7.2,19.5,17,22.2V316h-4.5c-3,0-5.5,2.5-5.5,5.5v19.9c0,3,2.5,5.5,5.5,5.5
		h19.9c3,0,5.5-2.5,5.5-5.5v-19.9c0-3-2.5-5.5-5.5-5.5h-4.5v-41.7c9.6,28.4,25.8,54.5,47.5,75.9c20.6,20.3,45.3,35.7,72.3,45.1h-65
		v-4.5c0-3-2.5-5.5-5.5-5.5h-19.9c-3,0-5.5,2.5-5.5,5.5v19.9c0,3,2.5,5.5,5.5,5.5H131c3,0,5.5-2.5,5.5-5.5v-4.5H246
		c2.5,10,11.5,17.5,22.3,17.5c12.7,0,23-10.3,23-23S281,377.8,268.3,377.8z M268.3,11c6.6,0,12,5.4,12,12s-5.4,12-12,12
		s-12-5.4-12-12S261.7,11,268.3,11z M64.8,211.9c0-6.6,5.4-12,12-12s12,5.4,12,12s-5.4,12-12,12S64.8,218.5,64.8,211.9z
		 M268.3,412.7c-6.6,0-12-5.4-12-12s5.4-12,12-12s12,5.4,12,12S274.9,412.7,268.3,412.7z"/>
</g>
</svg>
