<?xml version="1.0" encoding="utf-8"?>
<!-- Generator: Adobe Illustrator 26.0.0, SVG Export Plug-In . SVG Version: 6.00 Build 0)  -->
<svg version="1.1" id="Capa_1" xmlns="http://www.w3.org/2000/svg" xmlns:xlink="http://www.w3.org/1999/xlink" x="0px" y="0px"
	 viewBox="0 0 24 24" style="enable-background:new 0 0 24 24;" xml:space="preserve">
<style type="text/css">
	.st0{fill-rule:evenodd;clip-rule:evenodd;}
</style>
<g>
	<path class="st0" d="M6.8,6.2L12,10l5.3-3.9c0.8-0.6,1.9-0.8,2.7-0.3c0.9,0.4,1.5,1.4,1.5,2.7v8.3c0,0.5-0.1,1.1-0.4,1.7
		c-0.4,0.6-1.1,1-2.1,1h-2.1c-0.3,0-0.5-0.2-0.5-0.5v-5.8l-4.1,3.1c-0.2,0.1-0.4,0.1-0.6,0l-4.1-3v3.5c0,0.3-0.2,0.5-0.5,0.5
		s-0.5-0.2-0.5-0.5v-4.5c0-0.2,0.1-0.4,0.3-0.4c0.2-0.1,0.4-0.1,0.5,0l4.6,3.4l4.6-3.4c0.2-0.1,0.4-0.1,0.5,0
		c0.2,0.1,0.3,0.3,0.3,0.4v6.3H19c0.7,0,1.1-0.3,1.3-0.6c0.2-0.3,0.3-0.8,0.3-1.2V8.4c0-1-0.4-1.5-0.9-1.8c-0.5-0.2-1.1-0.2-1.7,0.2
		l0,0L12.4,11c-0.2,0.1-0.4,0.1-0.6,0L6.2,7C5.7,6.7,4.9,6.4,4.4,6.5c-0.3,0-0.5,0.1-0.6,0.3C3.6,7,3.5,7.3,3.5,7.7v9.4
		c0,0.7,0.2,1,0.5,1.1c0.3,0.2,0.6,0.2,0.8,0.2l0,0h1.3c0.3,0,0.5,0.2,0.5,0.5s-0.2,0.5-0.5,0.5H4.8c-0.4,0-0.9,0-1.4-0.4
		s-0.9-1-0.9-2V7.7c0-0.6,0.2-1.2,0.5-1.6s0.8-0.6,1.2-0.7C5.1,5.4,6.1,5.7,6.8,6.2z"/>
</g>
</svg>
